Coordinates
version=1
nRows=5
nColumns=40
inDegrees=yes

Units are S.I. units (second, meters, Newtons, ...)
Angles are in degrees.

endheader
time	pelvis_tilt	pelvis_list	pelvis_rotation	pelvis_tx	pelvis_ty	pelvis_tz	hip_flexion_r	hip_adduction_r	hip_rotation_r	knee_angle_r	knee_angle_r_beta	ankle_angle_r	subtalar_angle_r	mtp_angle_r	hip_flexion_l	hip_adduction_l	hip_rotation_l	knee_angle_l	knee_angle_l_beta	ankle_angle_l	subtalar_angle_l	mtp_angle_l	lumbar_extension	lumbar_bending	lumbar_rotation	arm_flex_r	arm_add_r	arm_rot_r	elbow_flex_r	pro_sup_r	wrist_flex_r	wrist_dev_r	arm_flex_l	arm_add_l	arm_rot_l	elbow_flex_l	pro_sup_l	wrist_flex_l	wrist_dev_l
      4.98750000	     -8.39719680	     -5.57046324	      9.11422080	      1.00242465	      0.92113719	      0.43251147	      3.70226255	      1.82196988	    -17.32001182	     14.77461404	     14.77461404	     15.70759395	     -1.66635653	     -2.14132726	     27.99044239	     -5.25443923	      4.83395431	     25.21467251	     25.21467251	      8.52790638	    -12.32049514	      3.90623640	     -7.89493485	      2.90843178	      5.37232003	     58.19407546	    -19.39483249	     -3.92697032	     83.08662918	     44.74058415	      0.00000000	      0.00000000	    -12.18816002	    -14.61955089	     18.02702938	     30.52761176	     42.66704325	      0.00000000	      0.00000000
      5.01085714	     -8.52428928	     -5.61785043	      8.68810201	      1.00267287	      0.92159375	      0.42728129	      3.59096716	      1.45495102	    -17.12644013	     14.96494230	     14.96494230	     15.41845306	     -1.41814379	     -2.18718923	     27.70188591	     -5.11652660	      4.48811410	     25.30668438	     25.30668438	      8.91964753	    -12.49839513	      3.95414472	     -7.89017652	      3.10041695	      5.21488340	     57.67133028	    -19.18155634	     -3.92633123	     82.62270990	     44.75600636	      0.00000000	      0.00000000	    -11.45466475	    -15.46787025	     17.84249690	     30.66111441	     42.71489743	      0.00000000	      0.00000000
      5.03421429	     -8.70614535	     -5.50868226	      8.18674289	      1.00276581	      0.92207115	      0.42202660	      3.69785031	      0.80603409	    -17.09242107	     15.49653679	     15.49653679	     15.15298222	     -0.88945390	     -2.62119175	     27.33231249	     -4.86364880	      3.89693936	     25.21441650	     25.21441650	      9.45656660	    -12.36338592	      4.38776754	     -7.81395556	      3.07173045	      5.39234261	     57.08095593	    -19.31305581	     -4.57846312	     80.89385185	     44.84051775	      0.00000000	      0.00000000	    -10.55835701	    -16.41362240	     17.49678931	     31.06459471	     42.82300452	      0.00000000	      0.00000000
      5.05757143	     -8.81019161	     -5.58564419	      7.73381691	      1.00278496	      0.92255561	      0.41685567	      3.65042453	      0.45832069	    -16.87455770	     15.77587272	     15.77587272	     14.83440083	     -0.67703043	     -2.67139390	     26.99661765	     -4.76601104	      3.51750116	     25.23174791	     25.23174791	      9.80683816	    -12.52386104	      4.40261605	     -7.86939258	      3.36106901	      5.14647125	     56.25756456	    -19.05250885	     -4.58855427	     80.30590413	     44.85829234	      0.00000000	      0.00000000	     -9.69564678	    -17.33057788	     17.27361303	     31.23670831	     42.87491702	      0.00000000	      0.00000000
      5.08092857	     -8.98764873	     -5.41862374	      7.19519149	      1.00257701	      0.92296906	      0.41171740	      3.88833864	     -0.29876874	    -16.85996250	     16.48980312	     16.48980312	     14.40500040	     -0.13013187	     -3.75494545	     26.65384333	     -4.46956101	      2.83975334	     25.18317144	     25.18317144	     10.57778520	    -12.28164853	      5.47371411	     -7.75867211	      3.31663518	      4.92766908	     55.67617372	    -18.25052168	     -6.18975083	     76.90195168	     45.04294937	      0.00000000	      0.00000000	     -8.89086389	    -18.25147355	     16.47143500	     31.81756236	     43.16133087	      0.00000000	      0.00000000
